<svg id="Capa_1" enable-background="new 0 0 512 512" height="512" viewBox="0 0 512 512" width="512" xmlns="http://www.w3.org/2000/svg"><g><path d="m323 432c0 43.674-35.336 80-79 80-43.672 0-79-36.336-79-80 0-43.56 35.44-79 79-79s79 35.44 79 79z" fill="#ffb454"/><path d="m323 432c0 43.674-35.336 80-79 80v-159c43.56 0 79 35.44 79 79z" fill="#ff7d47"/><path d="m443 381.09c0 36.34-29.57 65.91-65.91 65.91h-266.18c-36.34 0-65.91-29.57-65.91-65.91 0-17.61 6.86-34.16 19.3-46.61l28.19-28.19c5.87-5.87 9.55-13.65 10.35-21.9.009-.1-.032.26 20.93-174.02 6.099-61.63 57.933-110.37 120.23-110.37 61.33 0 114.11 48.47 120.23 110.37 20.838 173.251 20.921 173.919 20.93 174.02.8 8.25 4.48 16.03 10.35 21.9l28.19 28.19c12.45 12.45 19.3 29 19.3 46.61z" fill="#ffe278"/><path d="m443 381.09c0 36.34-29.57 65.91-65.91 65.91h-133.09v-447c61.33 0 114.11 48.47 120.23 110.37 20.838 173.251 20.921 173.919 20.93 174.02.8 8.25 4.48 16.03 10.35 21.9l28.19 28.19c12.45 12.45 19.3 29 19.3 46.61z" fill="#ffb454"/><circle cx="356" cy="152" fill="#dd5958" r="111"/><path d="m467 152c0 61.21-49.79 111-111 111v-222c61.21 0 111 49.79 111 111z" fill="#d8225b"/><path d="m372 112v80c0 8.28-6.72 15-15 15-.34 0-.67-.01-1-.04-7.82-.51-14-7.02-14-14.96v-65h-14.1c-8.28 0-15-6.72-15-15s6.72-15 15-15h29.1c8.28 0 15 6.72 15 15z" fill="#eef4ff"/><path d="m372 112v80c0 8.28-6.72 15-15 15-.34 0-.67-.01-1-.04v-109.96h1c8.28 0 15 6.72 15 15z" fill="#d9e6fc"/></g></svg>